<?xml version="1.0" encoding="UTF-8"?>
<!DOCTYPE svg PUBLIC "-//W3C//DTD SVG 1.1//EN" "http://www.w3.org/Graphics/SVG/1.1/DTD/svg11.dtd">
<!-- Creator: CorelDRAW -->
<svg xmlns="http://www.w3.org/2000/svg" xml:space="preserve" width="238.491mm" height="97.6086mm" version="1.1" style="shape-rendering:geometricPrecision; text-rendering:geometricPrecision; image-rendering:optimizeQuality; fill-rule:evenodd; clip-rule:evenodd"
viewBox="0 0 8268.95 3384.28"
 xmlns:xlink="http://www.w3.org/1999/xlink"
 xmlns:xodm="http://www.corel.com/coreldraw/odm/2003">
 <defs>
  <style type="text/css">
   <![CDATA[
    .fil2 {fill:#91091E}
    .fil0 {fill:#FF6F21}
    .fil1 {fill:#91091E;fill-rule:nonzero}
    .fil3 {fill:#FF6F21;fill-rule:nonzero}
   ]]>
  </style>
 </defs>
 <g id="Layer_x0020_1">
  <metadata id="CorelCorpID_0Corel-Layer"/>
  <g id="_2282984191152">
   <path class="fil0" d="M722.41 914.94c261.75,-317.54 657.75,-520.3 1101.16,-521.38 1.19,-0 2.36,-0.05 3.54,-0.05l0 162.44 -2.36 0.03c-395.86,0.72 -749.11,182.8 -981.25,467.54l-121.09 -108.59z"/>
   <path class="fil0" d="M614.96 2286.38l-0.07 -0.2c-107.24,-302.56 -92.42,-621.86 21.18,-900.94l-150.43 -61.25c-128.15,314.82 -144.87,675.02 -23.89,1016.33l0.07 0.22 153.14 -54.15z"/>
   <path class="fil0" d="M1811.2 3293.84c439.98,0 833.5,-198.64 1095.98,-511.05l-222.59 0c-227.45,216.03 -534.93,348.61 -873.39,348.61 -352.42,0 -671.23,-143.76 -901.1,-375.79l-1.76 -1.8 -121.03 108.54 1.86 1.9c259.71,265.06 621.63,429.59 1022.03,429.59z"/>
   <path class="fil1" d="M1870.14 1770.58l-15.4 0c4.2,5.13 8.4,10.15 12.6,15.05 4.2,4.9 8.17,9.91 11.9,15.05 1.4,1.4 2.68,2.92 3.85,4.55 1.16,1.63 2.22,3.15 3.15,4.55 4.2,6.53 7.7,13.06 10.5,19.6 2.34,5.6 3.85,11.08 4.55,16.45 0.7,5.37 1.05,11.08 1.05,17.15l0 20.31 0 96.6c0.47,0.47 0.7,0.94 0.7,1.4 0,0.47 -0.12,0.7 -0.35,0.7 -0.23,0 -0.35,0.23 -0.35,0.7l0 37.8 0 144.21 0 42c0,3.73 0.12,7.12 0.35,10.15 0.23,3.03 0.82,6.19 1.75,9.45 1.4,5.13 3.38,10.15 5.95,15.05 2.57,4.9 5.25,9.68 8.05,14.35 3.27,4.2 6.54,8.29 9.8,12.25 3.27,3.97 6.53,7.82 9.8,11.55 1.87,2.34 3.73,4.67 5.6,7 1.87,2.33 3.73,4.67 5.6,7l1.4 1.4 -2.1 -2.1c-1.87,-1.4 -3.5,-2.92 -4.9,-4.55 -1.4,-1.63 -3.03,-3.38 -4.9,-5.25 -13.53,-15.87 -27.07,-31.74 -40.6,-47.6 -13.54,-15.87 -27.07,-31.97 -40.6,-48.3 -6.54,-7.94 -12.72,-15.75 -18.55,-23.46 -5.83,-7.7 -11.09,-16.22 -15.75,-25.55 -2.33,-5.13 -4.43,-10.27 -6.3,-15.4 -1.87,-5.13 -2.8,-10.5 -2.8,-16.1l0 -13.3 0 -77.7c-14.93,-2.8 -29.4,-7.35 -43.4,-13.65 -14,-6.3 -27.3,-13.42 -39.9,-21.35 -0.93,-0.47 -1.87,-0.93 -2.79,-1.4 -0.94,-0.47 -1.87,-0.94 -2.8,-1.4 2.34,2.33 4.43,4.66 6.3,7 1.87,2.33 3.73,4.67 5.6,7 6.07,8.87 10.97,17.5 14.7,25.9 6.54,15.4 9.92,31.97 10.15,49.7 0.24,17.73 -3.15,34.3 -10.15,49.7 -4.66,9.8 -10.85,18.2 -18.55,25.2 -7.7,7 -16.22,12.83 -25.56,17.5 -14.93,7 -30.68,10.73 -47.25,11.2 -16.57,0.47 -32.79,-1.87 -48.65,-7 -19.14,-6.53 -35.94,-15.4 -50.4,-26.6 -2.33,-1.87 -4.55,-3.73 -6.65,-5.6 -2.1,-1.87 -4.31,-3.97 -6.65,-6.3 -20.07,-23.33 -39.43,-46.21 -58.1,-68.61 -6.07,-7 -12.02,-14.12 -17.85,-21.35 -5.84,-7.23 -11.55,-14.35 -17.15,-21.35 -4.66,-5.13 -9.1,-10.97 -13.3,-17.5 -0.46,0 -0.7,-0.24 -0.7,-0.7 -2.33,-2.33 -4.43,-4.43 -6.3,-6.3 -1.87,-1.87 -3.97,-3.73 -6.3,-5.6 -18.2,-17.73 -37.68,-34.07 -58.45,-49 -20.77,-14.93 -43.06,-27.07 -66.86,-36.4 -12.13,-4.67 -24.5,-8.52 -37.1,-11.55 -12.6,-3.03 -25.44,-5.01 -38.5,-5.95 -28,-1.4 -56,1.87 -84.01,9.8 -0.47,0 -1.4,-0.82 -2.8,-2.45 -1.4,-1.64 -2.92,-3.38 -4.55,-5.25 -1.64,-1.87 -3.03,-3.62 -4.2,-5.26 -1.16,-1.63 -1.75,-2.22 -1.75,-1.75 -5.13,-6.54 -10.27,-12.72 -15.4,-18.55 -5.13,-5.83 -10.27,-12.02 -15.4,-18.55 -5.13,-6.54 -10.38,-12.72 -15.75,-18.55 -5.37,-5.84 -10.62,-12.02 -15.75,-18.55 0.46,0 0.11,-0.82 -1.05,-2.45 -1.16,-1.64 -2.57,-3.38 -4.2,-5.25 -1.64,-1.87 -3.15,-3.62 -4.55,-5.25 -1.4,-1.63 -2.1,-2.45 -2.1,-2.45 38.74,-12.14 78.64,-13.77 119.71,-4.9 25.2,5.6 49,14.7 71.4,27.3 22.4,12.6 43.63,27.07 63.71,43.4 9.8,7.93 19.25,16.22 28.35,24.85 9.1,8.64 17.85,17.62 26.25,26.95 11.67,12.14 23.1,24.97 34.3,38.51 13.53,15.4 26.72,30.8 39.55,46.2 12.84,15.4 25.79,31.03 38.85,46.9 8.4,6.07 17.97,11.67 28.7,16.8 21,9.33 42.47,14 64.41,14 14.93,-0.46 29.63,-3.5 44.1,-9.1 14.47,-5.6 26.6,-14.24 36.4,-25.9 5.13,-5.6 9.22,-11.78 12.25,-18.55 3.03,-6.77 5.48,-13.89 7.35,-21.35 2.8,-13.07 3.5,-26.14 2.1,-39.2 -0.93,-0.47 -2.1,-0.82 -3.5,-1.05 -1.4,-0.23 -2.57,-0.58 -3.5,-1.05 -10.73,-2.34 -21.82,-3.38 -33.25,-3.15 -11.43,0.23 -22.52,1.28 -33.25,3.15 -2.8,0.94 -5.6,1.63 -8.4,2.1 -2.8,0.46 -5.84,0.93 -9.1,1.4 -0.93,-0.94 -1.99,-2.1 -3.15,-3.5 -1.17,-1.4 -2.22,-2.57 -3.15,-3.5 -0.94,-1.4 -1.98,-2.8 -3.15,-4.2 -1.17,-1.4 -2.45,-2.8 -3.85,-4.2 -5.13,-6.07 -10.26,-12.14 -15.4,-18.2 -5.13,-6.07 -10.27,-12.14 -15.4,-18.2 -5.13,-6.53 -10.27,-12.84 -15.4,-18.9 -5.13,-6.07 -10.27,-12.14 -15.4,-18.2 -2.33,-2.33 -4.32,-4.67 -5.95,-7 -1.63,-2.33 -3.38,-4.66 -5.25,-7 -0.47,-0.46 -0.7,-0.81 -0.7,-1.05 0,-0.24 -0.23,-0.59 -0.7,-1.05 2.8,-0.47 5.72,-0.94 8.75,-1.4 3.03,-0.46 5.95,-0.93 8.75,-1.4 6.07,-1.87 12.02,-3.85 17.85,-5.95 5.84,-2.1 11.32,-4.55 16.46,-7.35 14.93,-7.94 28.58,-17.85 40.95,-29.75 12.37,-11.9 21.82,-25.78 28.35,-41.65 0.47,-1.4 0.93,-2.8 1.4,-4.2 0.47,-1.4 0.94,-2.8 1.4,-4.2 -6.53,0.47 -12.95,1.16 -19.25,2.1 -6.3,0.93 -12.49,2.57 -18.55,4.9 -17.73,5.6 -34.3,14.24 -49.7,25.9 -15.4,11.67 -27.77,25.67 -37.1,42 -2.8,-2.8 -5.13,-5.36 -7,-7.7 -4.2,-5.13 -6.3,-7.7 -6.3,-7.7 -5.13,-6.07 -10.26,-12.13 -15.4,-18.2 -5.13,-6.06 -10.26,-12.13 -15.4,-18.2 -5.13,-6.54 -10.38,-12.72 -15.75,-18.55 -5.37,-5.83 -10.62,-12.02 -15.75,-18.55 0,0 -0.59,-0.7 -1.75,-2.1 -1.16,-1.4 -2.57,-3.15 -4.2,-5.25 -1.63,-2.1 -3.03,-3.97 -4.2,-5.6 -1.17,-1.64 -1.75,-2.68 -1.75,-3.15 8.87,-14.93 20.07,-27.89 33.6,-38.85 13.53,-10.97 28.47,-19.48 44.8,-25.55 14.94,-6.07 31.03,-9.45 48.3,-10.15 17.27,-0.7 33.37,2.68 48.3,10.15 6.07,2.8 11.9,6.54 17.5,11.2 1.87,1.87 3.5,3.5 4.9,4.9 1.4,1.4 2.8,3.03 4.2,4.9 -1.4,-2.33 0.12,-1.16 4.55,3.5 4.43,4.67 10.15,11.08 17.16,19.25 7,8.17 14.58,17.15 22.75,26.95 8.17,9.8 15.64,18.9 22.4,27.3 6.77,8.4 12.02,15.05 15.75,19.95 3.73,4.9 4.67,6.42 2.8,4.55 5.6,7 9.57,13.54 11.9,19.6 1.4,3.26 2.45,6.41 3.15,9.45 0.7,3.03 1.52,6.18 2.45,9.45 1.4,14.47 -0.47,28.47 -5.6,42 -5.13,13.53 -12.14,25.67 -21,36.4l23.1 8.4c10.74,3.27 21.59,5.37 32.55,6.3 10.97,0.94 21.82,0 32.55,-2.79 7.94,-2.34 15.87,-6.19 23.8,-11.55 7.93,-5.37 13.77,-12.02 17.5,-19.95l0 -58.8 0 -49 -30.8 0c-2.8,-2.8 -4.9,-5.14 -6.3,-7 -1.4,-1.87 -3.74,-4.43 -7,-7.7 -5.13,-6.54 -10.27,-12.72 -15.4,-18.55 -5.13,-5.84 -10.27,-12.02 -15.4,-18.55 -5.14,-6.54 -10.27,-12.71 -15.4,-18.55 -5.14,-5.83 -10.27,-12.01 -15.4,-18.55 -2.33,-2.33 -4.32,-4.67 -5.95,-7 -1.63,-2.33 -3.38,-4.66 -5.25,-7 0,0 -0.46,-0.47 -1.4,-1.4l9.8 0 118.31 0 86.1 0c1.4,0.94 2.57,1.98 3.5,3.15 0.93,1.17 1.87,2.45 2.8,3.85 1.87,1.4 4.2,3.96 7,7.7 5.14,6.54 10.39,12.72 15.75,18.55 5.37,5.84 10.62,12.02 15.75,18.55 5.13,6.06 10.26,12.13 15.4,18.2 5.13,6.07 10.27,12.37 15.4,18.9 1.87,2.33 3.62,4.55 5.25,6.65 1.64,2.1 3.62,4.31 5.95,6.65 0,0.47 0.47,1.17 1.4,2.1l-10.5 0 -117.61 0zm-460.63 184.81c0,0.47 0.12,0.7 0.35,0.7 0.23,0 0.35,0.24 0.35,0.7 -2.8,-3.73 -3.85,-5.13 -3.15,-4.2 0.7,0.93 1.52,1.87 2.45,2.8zm445.23 226.81c-0.93,-0.93 -1.52,-1.63 -1.75,-2.1 -0.23,-0.47 0.35,0.23 1.75,2.1zm163.11 -411.62l-5.6 0c4.2,5.13 8.28,10.15 12.25,15.05 3.97,4.9 8.05,9.91 12.25,15.05 0.94,1.4 1.98,2.92 3.15,4.55 1.16,1.63 2.22,3.15 3.15,4.55 2.33,3.26 4.43,6.53 6.3,9.8 1.87,3.27 3.49,6.77 4.9,10.5 2.33,5.13 3.73,10.38 4.2,15.75 0.46,5.37 0.7,11.08 0.7,17.15l0 20.31 0 137.2 0 144.91 0 41.3c0,7 0.7,13.53 2.1,19.6 3.27,10.74 8.17,20.54 14.7,29.4 6.53,8.4 13.06,16.34 19.6,23.8 1.87,2.34 3.62,4.67 5.25,7 1.64,2.33 3.38,4.67 5.25,7 0.94,0 1.4,0.46 1.4,1.4 -0.94,-0.94 -1.4,-1.63 -1.4,-2.1 -3.73,-2.8 -7,-6.07 -9.8,-9.8 -14,-15.87 -27.65,-31.74 -40.95,-47.6 -13.3,-15.87 -26.72,-31.97 -40.25,-48.3 -6.54,-7.94 -12.83,-15.75 -18.9,-23.46 -6.07,-7.7 -11.44,-16.22 -16.1,-25.55 -2.33,-5.13 -4.32,-10.27 -5.95,-15.4 -1.63,-5.13 -2.45,-10.5 -2.45,-16.1l0 -13.3 0 -121.81 0 -151.91 0 -49 -33.6 0c-2.8,-2.8 -4.9,-5.14 -6.3,-7 -2.8,-3.73 -5.13,-6.3 -7,-7.7 -5.13,-6.54 -10.27,-12.72 -15.4,-18.55 -5.13,-5.84 -10.26,-12.02 -15.4,-18.55 -5.13,-6.54 -10.27,-12.71 -15.4,-18.55 -5.13,-5.83 -10.27,-12.01 -15.4,-18.55 -2.34,-2.33 -4.32,-4.67 -5.95,-7 -1.64,-2.33 -3.38,-4.66 -5.25,-7 -0.93,0 -1.4,-0.47 -1.4,-1.4l32.9 0 129.51 0 79.81 0c2.8,2.33 4.9,4.44 6.3,6.3 1.87,1.87 4.2,4.66 7,8.4 5.14,6.07 10.39,12.14 15.75,18.2 5.37,6.07 10.62,12.37 15.75,18.9 5.13,6.06 10.26,12.13 15.4,18.2 5.13,6.07 10.27,12.37 15.4,18.9 1.87,2.33 3.73,4.55 5.6,6.65 1.87,2.1 3.73,4.31 5.6,6.65 0,0.47 0.47,1.17 1.4,2.1l-33.6 0 -129.51 0zm1274.08 560.73c0,0.47 0.47,1.16 1.4,2.1 0,32.2 -5.6,59.97 -16.8,83.31 -11.2,23.33 -26.49,42.7 -45.86,58.1 -19.36,15.4 -41.88,26.72 -67.55,33.95 -25.67,7.23 -52.74,10.85 -81.21,10.85 -35,0 -68.61,-3.97 -100.81,-11.9 -32.2,-7.93 -63.01,-19.13 -92.41,-33.6 -29.4,-14.47 -57.17,-31.73 -83.31,-51.8 -26.13,-20.07 -50.63,-42.47 -73.5,-67.2 -14.47,-16.8 -29.4,-33.84 -44.8,-51.1 -15.4,-17.27 -30.57,-35 -45.5,-53.2 -14.93,-18.2 -29.17,-36.75 -42.71,-55.65 -13.53,-18.9 -25.67,-38.15 -36.4,-57.76 -12.6,2.8 -25.44,4.2 -38.5,4.2 -22.87,0 -42.94,-3.62 -60.2,-10.85 -17.27,-7.24 -33.6,-18.55 -49,-33.95 -16.34,-18.2 -31.85,-35.59 -46.55,-52.15 -14.7,-16.57 -27.65,-33.14 -38.85,-49.7 -11.21,-16.57 -20.07,-33.37 -26.6,-50.4 -6.53,-17.03 -9.8,-35.35 -9.8,-54.95 0,-12.6 1.52,-24.73 4.55,-36.4 3.03,-11.67 7.82,-22.05 14.35,-31.15 6.54,-9.1 14.93,-16.45 25.2,-22.05 10.27,-5.6 22.87,-8.4 37.8,-8.4 4.2,0 8.29,0.47 12.25,1.4 3.97,0.94 7.82,1.4 11.55,1.4l135.11 0c1.87,0 2.8,-3.27 2.8,-9.68 0,-6.53 0,-11.2 0,-14.11 -46.21,-0.94 -91.59,-1.29 -136.16,-1.05 -44.57,0.24 -89.72,0.35 -135.46,0.35 -7.94,-7.47 -15.64,-15.75 -23.11,-25.09 -7.46,-9.21 -14.47,-18.08 -21,-26.37 -3.73,-4.2 -8.05,-8.98 -12.95,-14.58 -4.9,-5.6 -9.68,-10.97 -14.35,-15.98 -4.67,-5.13 -8.52,-9.68 -11.55,-13.54 -3.03,-3.96 -4.55,-6.65 -4.55,-8.05l492.83 0c2.34,2.33 4.43,4.78 6.3,7.35 1.87,2.45 3.97,4.9 6.3,7.23 12.14,14.35 24.27,29.4 36.41,45.27 12.14,15.75 24.96,30.33 38.5,43.75l-133.71 0 0 126.7c0,0.47 -3.03,0.94 -9.1,1.4 -6.07,0.47 -13.77,0.82 -23.1,1.05 -9.33,0.23 -19.48,0.35 -30.45,0.35 -10.97,0 -21.59,0 -31.85,0 -10.26,0 -19.36,0 -27.3,0 -7.93,0 -13.3,0 -16.1,0 -3.73,0 -7.58,-0.47 -11.55,-1.4 -3.97,-0.93 -7.82,-1.4 -11.55,-1.4 -25.67,0 -45.86,8.4 -60.55,25.2 -14.7,16.81 -22.05,39.9 -22.05,69.31 0,6.54 0.23,12.95 0.7,19.25 0.47,6.3 1.4,12.49 2.8,18.55 16.8,5.6 34.07,8.4 51.8,8.4 14.94,0 29.17,-1.63 42.7,-4.9 13.54,-3.27 26.84,-7.7 39.9,-13.3 0,-5.6 0.81,-11.44 2.45,-17.5 1.63,-6.07 3.85,-11.56 6.65,-16.46 2.8,-4.9 6.42,-8.98 10.85,-12.25 4.43,-3.27 9.68,-4.9 15.75,-4.9 7,0 13.18,3.62 18.55,10.85 5.37,7.24 10.62,13.65 15.75,19.25 5.13,6.07 11.55,13.3 19.25,21.7 7.7,8.4 15.17,16.81 22.4,25.2 7.23,8.4 13.41,16.22 18.55,23.45 5.13,7.23 7.7,12.25 7.7,15.05 0,4.2 -1.75,8.4 -5.25,12.6 -3.5,4.2 -7.82,8.05 -12.95,11.55 -5.13,3.5 -10.62,6.53 -16.45,9.1 -5.84,2.57 -11.09,4.78 -15.75,6.65 0,4.67 0.35,9.1 1.05,13.3 0.7,4.2 1.05,8.4 1.05,12.6 15.87,45.74 37.81,89.37 65.81,130.91 43.87,42.01 92.87,75.02 147.01,99.06 54.14,24.03 111.08,36.05 170.81,36.05 9.33,0 18.32,-0.46 26.95,-1.4 8.64,-0.93 17.62,-1.87 26.95,-2.8 26.14,-2.8 49.23,-9.92 69.31,-21.35 20.07,-11.43 36.75,-25.55 50.05,-42.35 13.3,-16.8 23.33,-35.47 30.1,-56.01 6.77,-20.53 10.15,-41.53 10.15,-63 2.33,1.87 4.44,4.2 6.3,7 14,14 28,29.4 42,46.2 14,16.8 26.84,33.37 38.5,49.7zm-1111.67 -560.73l-5.6 0c4.2,5.13 8.28,10.15 12.25,15.05 3.97,4.9 8.05,9.91 12.25,15.05 0.94,1.4 1.98,2.92 3.15,4.55 1.16,1.63 2.22,3.15 3.15,4.55 2.33,3.26 4.43,6.53 6.3,9.8 1.87,3.27 3.49,6.77 4.9,10.5 2.33,5.13 3.73,10.38 4.2,15.75 0.46,5.37 0.7,11.08 0.7,17.15l0 20.31 0 137.2 0 144.91 0 41.3c0,7 0.7,13.53 2.1,19.6 3.27,10.74 8.17,20.54 14.7,29.4 6.53,8.4 13.06,16.34 19.6,23.8 1.87,2.34 3.62,4.67 5.25,7 1.64,2.33 3.38,4.67 5.25,7 0.94,0 1.4,0.46 1.4,1.4 -0.94,-0.94 -1.4,-1.63 -1.4,-2.1 -3.73,-2.8 -7,-6.07 -9.8,-9.8 -14,-15.87 -27.65,-31.74 -40.95,-47.6 -13.3,-15.87 -26.72,-31.97 -40.25,-48.3 -6.54,-7.94 -12.83,-15.75 -18.9,-23.46 -6.07,-7.7 -11.44,-16.22 -16.1,-25.55 -2.33,-5.13 -4.32,-10.27 -5.95,-15.4 -1.63,-5.13 -2.45,-10.5 -2.45,-16.1l0 -13.3 0 -121.81 0 -151.91 0 -49 -33.6 0c-2.8,-2.8 -4.9,-5.14 -6.3,-7 -2.8,-3.73 -5.13,-6.3 -7,-7.7 -5.13,-6.54 -10.27,-12.72 -15.4,-18.55 -5.13,-5.84 -10.26,-12.02 -15.4,-18.55 -5.13,-6.54 -10.27,-12.71 -15.4,-18.55 -5.13,-5.83 -10.27,-12.01 -15.4,-18.55 -2.34,-2.33 -4.32,-4.67 -5.95,-7 -1.64,-2.33 -3.38,-4.66 -5.25,-7 -0.94,0 -1.4,-0.47 -1.4,-1.4l32.9 0 129.51 0 79.81 0c2.8,2.33 4.9,4.44 6.3,6.3 1.87,1.87 4.2,4.66 7,8.4 5.14,6.07 10.39,12.14 15.75,18.2 5.37,6.07 10.62,12.37 15.75,18.9 5.13,6.06 10.26,12.13 15.4,18.2 5.13,6.07 10.27,12.37 15.4,18.9 1.87,2.33 3.73,4.55 5.6,6.65 1.87,2.1 3.73,4.31 5.6,6.65 0,0.47 0.47,1.17 1.4,2.1l-33.6 0 -129.51 0z"/>
   <path class="fil1" d="M2591.85 1498.96c7.15,12.62 13.36,25.89 18.62,39.77 5.26,13.89 8.95,28.09 11.05,42.62 2.1,14.52 2.32,28.93 0.63,43.24 -1.69,14.31 -5.89,28.2 -12.63,41.67 -0.42,0.84 -1.37,1.16 -2.84,0.95 -1.47,-0.21 -3.16,-0.74 -5.05,-1.58 -1.89,-0.84 -3.68,-1.68 -5.37,-2.52 -1.68,-0.84 -2.52,-1.27 -2.52,-1.27 -10.94,-6.31 -21.25,-13.46 -30.93,-21.46 -4.63,-3.79 -9.26,-7.68 -13.89,-11.68 -4.63,-4 -9.26,-8.31 -13.89,-12.94 -0.84,-0.84 -2.63,-2.84 -5.37,-6 -2.74,-3.16 -3.68,-5.79 -2.84,-7.89 9.68,-19.78 14.1,-40.82 13.26,-63.13 -0.84,-18.1 -4.21,-35.56 -10.1,-52.4 -5.89,-16.83 -13.47,-33.04 -22.73,-48.61 -3.37,-5.47 -6.84,-10.73 -10.42,-15.78 -3.58,-5.05 -7.26,-9.89 -11.05,-14.52 -0.84,-0.84 -1.79,-1.89 -2.84,-3.16 -1.05,-1.27 -1.79,-2.32 -2.21,-3.16 -0.42,-0.42 -0.73,-0.63 -0.95,-0.63 -0.21,0 -0.52,-0.21 -0.95,-0.63 -1.26,-0.84 -2.74,-1.68 -4.42,-2.52l-3.79 -1.89c-2.95,-0.84 -5.79,-1.9 -8.53,-3.16 -2.74,-1.27 -5.58,-2.32 -8.52,-3.16 -17.25,-4.63 -34.82,-7.15 -52.72,-7.58 -17.89,-0.42 -35.67,1.05 -53.34,4.42 -23.99,5.47 -46.93,14.2 -68.81,26.2 -21.88,11.99 -41.25,27.25 -58.08,45.77 -8.41,9.68 -16.2,20.1 -23.35,31.25 -7.16,11.15 -12.63,22.83 -16.42,35.04 -3.36,11.36 -5.79,22.94 -7.26,34.72 -1.47,11.78 -2,23.78 -1.57,35.99 0.84,10.94 2.1,21.78 3.79,32.51 1.69,10.73 4.21,21.36 7.58,31.88 307.64,0 -71.49,0 -51.14,0 -1.68,-2.53 -3.79,-5.47 -6.31,-8.84 -14.73,-21.46 -25.04,-44.61 -30.93,-69.44 -5.89,-26.51 -7.58,-52.82 -5.05,-78.91 0.84,-11.78 2.74,-23.36 5.68,-34.72 2.95,-11.37 7.37,-22.52 13.26,-33.46 13.05,-23.99 30.3,-44.72 51.77,-62.18 21.47,-17.47 44.82,-31.04 70.08,-40.72 13.47,-5.05 27.14,-8.95 41.03,-11.68 13.89,-2.74 27.78,-4.1 41.67,-4.1 29.46,-0.84 57.87,4.21 85.23,15.15 17.68,7.58 34.72,16.63 51.14,27.15 13.05,8.41 25.57,17.26 37.56,26.51 12,9.26 23.46,18.94 34.4,29.04 28.2,25.67 51.56,54.29 70.08,85.86z"/>
   <path class="fil0" d="M2783.32 270.22c-327.04,-201.16 -719.89,-301.36 -1131.53,-261.65 -1004.43,96.91 -1740.12,989.71 -1643.21,1994.14 57.19,592.78 391.65,1091.88 862.61,1381.56l105.93 -172.52c-418.77,-257.58 -716.17,-701.38 -767.02,-1228.48 -86.17,-893.13 568,-1687.02 1461.14,-1773.18 366.03,-35.32 715.35,53.78 1006.16,232.65l105.93 -172.52z"/>
   <path class="fil2" d="M1811.2 860.63c-553.57,0 -1002.33,448.76 -1002.33,1002.33 0,358.86 188.63,673.62 472.12,850.68l86.08 -77c-267.62,-153.96 -447.82,-442.78 -447.82,-773.68 0,-492.61 399.34,-891.96 891.95,-891.96l0 -110.38z"/>
   <path class="fil1" d="M3739.45 1970.61l0 -46.34 76.64 -12.47c10.1,-1.78 15.14,-7.43 15.14,-16.93l0 -384.96 -27.62 0c-8.32,0 -16.49,0.44 -24.51,1.33 -8.02,0.89 -14.7,2.53 -20.05,4.9 -8.32,3.57 -13.37,9.51 -15.15,17.82l-27.62 111.39 -59.71 0c-3.57,-33.27 -5.79,-64.16 -6.68,-92.68 -0.89,-28.51 0.45,-59.41 4.01,-92.67l476.75 0c3.56,33.27 4.9,64.31 4.01,93.12 -0.89,28.81 -2.82,59.56 -5.79,92.23l-59.7 0 -29.41 -112.28c-0.59,-4.16 -2.08,-7.57 -4.45,-10.25 -2.38,-2.67 -5.94,-4.9 -10.69,-6.68 -11.29,-4.16 -26.14,-6.23 -44.56,-6.23l-25.84 0 0 384.96c0,9.5 5.05,15.15 15.15,16.93l75.74 12.47 0 46.34 -305.65 0zm425.06 0l0 -46.34 34.75 -6.24c10.7,-1.78 16.04,-8.02 16.04,-18.71l0 -424.17c0,-10.69 -5.05,-16.63 -15.15,-17.82l-41.88 -7.13 0 -45.45c23.17,-6.54 49.46,-11.14 78.86,-13.81 29.41,-2.67 55.69,-4.01 78.86,-4.01l16.04 16.04 0 496.35c0,8.91 4.75,15.14 14.26,18.71l22.28 6.24 0 46.34 -204.06 0zm242.38 0l0 -46.34 21.39 -6.24c4.75,-1.78 8.46,-4.01 11.14,-6.68 2.68,-2.67 4.01,-6.68 4.01,-12.03l0 -162.18c0,-30.3 -4.45,-51.68 -13.36,-64.16 -8.91,-12.48 -23.17,-18.72 -42.77,-18.72 -12.47,0 -25.4,2.53 -38.76,7.58 -13.37,5.05 -25.69,12.62 -36.98,22.72l0 -32.97c16.04,-22.58 35.49,-39.36 58.37,-50.35 22.87,-10.99 48.56,-16.48 77.08,-16.48 43.96,0 73.81,12.18 89.56,36.53 15.74,24.36 23.62,58.81 23.62,103.37l0 174.66c0,10.69 5.05,16.93 15.14,18.71l34.76 6.24 0 46.34 -203.17 0zm243.27 -185.35c0,-65.35 15.89,-115.1 47.67,-149.26 31.78,-34.16 77.09,-51.23 135.9,-51.23 51.68,0 89.11,12.18 112.28,36.53 23.17,24.36 34.75,55.25 34.75,92.67 0,8.91 -0.45,18.12 -1.34,27.63 -0.89,9.5 -2.23,18.41 -4.01,26.73l-245.06 0 0 -42.77 143.47 0c0.6,-2.97 0.89,-5.64 0.89,-8.02 0,-2.38 0,-5.35 0,-8.91 0,-22.57 -3.87,-40.99 -11.58,-55.25 -7.72,-14.25 -20.2,-21.39 -37.43,-21.39 -17.23,0 -30.89,9.35 -40.99,28.07 -10.1,18.71 -15.15,53.61 -15.15,104.71 0,33.27 2.68,60.44 8.02,81.54 5.35,21.09 14.7,36.68 28.07,46.78 13.37,10.1 31.34,15.14 53.91,15.14 17.82,0 35.05,-2.97 51.69,-8.91 16.64,-5.94 30.59,-15.15 41.88,-27.62l24.95 18.71c-8.31,29.11 -26.28,51.24 -53.91,66.39 -27.62,15.15 -61.04,22.72 -100.25,22.72 -39.8,0 -72.48,-7.87 -98.02,-23.62 -25.55,-15.74 -44.56,-38.17 -57.04,-67.27 -12.47,-29.11 -18.71,-63.57 -18.71,-103.37zm658.53 -17.82l203.17 0 18.71 55.25 -237.03 0 15.15 -55.25zm332.38 130.1c2.38,7.72 8.31,13.07 17.82,16.04l40.1 10.69 0 46.34 -243.27 0 0 -46.34 62.37 -10.69 -125.65 -408.13 27.63 0 -122.97 408.13 61.49 10.69 0 46.34 -188.91 0 0 -46.34 43.67 -10.69c8.91,-2.38 14.55,-7.72 16.93,-16.04l147.92 -439.31 114.95 0 147.93 439.31zm219.21 80.2c-27.92,0 -53.02,-6.54 -75.3,-19.61 -22.28,-13.07 -39.66,-33.12 -52.13,-60.15 -12.47,-27.03 -18.71,-62.23 -18.71,-105.6 0,-45.15 7.42,-83.02 22.28,-113.62 14.85,-30.59 36.53,-53.91 65.05,-69.95 28.52,-16.04 63.27,-24.06 104.26,-24.06 11.88,0 24.21,0.89 36.98,2.67 12.77,1.79 22.72,4.16 29.85,7.13l-8.91 55.25c-4.76,-4.75 -11.74,-8.47 -20.95,-11.14 -9.21,-2.68 -18.56,-4.01 -28.07,-4.01 -15.45,0 -28.96,4.31 -40.55,12.92 -11.58,8.62 -20.5,23.46 -26.74,44.56 -6.24,21.09 -9.65,50.05 -10.25,86.88 0,32.67 2.37,58.96 7.13,78.86 4.75,19.9 12.03,34.3 21.83,43.22 9.8,8.91 21.53,13.36 35.2,13.36 11.88,0 24.36,-2.08 37.43,-6.24 13.07,-4.16 23.47,-10.1 31.19,-17.82l12.47 16.04c-12.47,21.39 -28.96,38.61 -49.45,51.68 -20.5,13.07 -44.71,19.61 -72.63,19.61zm210.3 -575.65l0 494.56c0,7.13 1.48,12.03 4.46,14.7 2.97,2.68 6.83,4.31 11.58,4.9l32.08 4.45 0 43.67c-7.72,2.38 -19.16,5.05 -34.31,8.02 -15.15,2.97 -29.85,4.46 -44.11,4.46 -23.76,0 -42.92,-5.94 -57.48,-17.82 -14.56,-11.88 -24.21,-29.71 -28.96,-53.47l0 -426.84c0,-10.69 -5.05,-16.93 -15.15,-18.72l-42.77 -6.24 0 -45.44c23.76,-6.54 50.35,-11.58 79.75,-15.15 29.41,-3.56 55.7,-5.64 78.86,-6.24l16.04 15.15zm258.42 497.24c0,10.69 5.05,16.93 15.15,18.71l34.75 6.24 0 46.34 -217.43 0 0 -46.34 34.75 -6.24c10.1,-1.78 15.15,-8.02 15.15,-18.71l0 -220.1c0,-10.69 -4.75,-16.93 -14.26,-18.72l-39.21 -8.02 0 -48.12c23.17,-6.53 49.01,-11.29 77.53,-14.26 28.51,-2.97 54.36,-4.46 77.53,-4.46l16.04 14.25 0 299.42zm-0.89 -416.15c0,17.82 -5.79,32.08 -17.38,42.77 -11.59,10.69 -26.88,16.04 -45.9,16.04 -19.6,0 -35.2,-5.35 -46.78,-16.04 -11.58,-10.69 -17.37,-24.95 -17.37,-42.77 0,-17.82 5.79,-31.93 17.37,-42.33 11.58,-10.39 27.18,-15.59 46.78,-15.59 19.01,0 34.31,5.2 45.9,15.59 11.58,10.39 17.38,24.51 17.38,42.33zm342.18 487.44l0 -46.34 76.64 -12.47c10.1,-1.78 15.14,-7.43 15.14,-16.93l0 -384.96 -27.62 0c-8.32,0 -16.48,0.44 -24.51,1.33 -8.02,0.89 -14.7,2.53 -20.05,4.9 -8.32,3.57 -13.37,9.51 -15.15,17.82l-27.62 111.39 -59.71 0c-3.57,-33.27 -5.79,-64.16 -6.68,-92.68 -0.89,-28.51 0.45,-59.41 4.01,-92.67l476.75 0c3.56,33.27 4.9,64.31 4.01,93.12 -0.89,28.81 -2.82,59.56 -5.79,92.23l-59.71 0 -29.41 -112.28c-0.59,-4.16 -2.08,-7.57 -4.46,-10.25 -2.38,-2.67 -5.94,-4.9 -10.69,-6.68 -11.29,-4.16 -26.14,-6.23 -44.56,-6.23l-25.84 0 0 384.96c0,9.5 5.05,15.15 15.14,16.93l75.74 12.47 0 46.34 -305.65 0zm410.8 -185.35c0,-65.35 15.89,-115.1 47.67,-149.26 31.78,-34.16 77.09,-51.23 135.9,-51.23 51.69,0 89.11,12.18 112.28,36.53 23.17,24.36 34.75,55.25 34.75,92.67 0,8.91 -0.45,18.12 -1.34,27.63 -0.89,9.5 -2.23,18.41 -4.01,26.73l-245.05 0 0 -42.77 143.47 0c0.59,-2.97 0.89,-5.64 0.89,-8.02 0,-2.38 0,-5.35 0,-8.91 0,-22.57 -3.87,-40.99 -11.58,-55.25 -7.72,-14.25 -20.2,-21.39 -37.43,-21.39 -17.23,0 -30.89,9.35 -40.99,28.07 -10.1,18.71 -15.15,53.61 -15.15,104.71 0,33.27 2.67,60.44 8.02,81.54 5.35,21.09 14.7,36.68 28.07,46.78 13.37,10.1 31.34,15.14 53.91,15.14 17.82,0 35.05,-2.97 51.69,-8.91 16.64,-5.94 30.59,-15.15 41.88,-27.62l24.95 18.71c-8.31,29.11 -26.28,51.24 -53.91,66.39 -27.62,15.15 -61.04,22.72 -100.25,22.72 -39.8,0 -72.47,-7.87 -98.02,-23.62 -25.55,-15.74 -44.56,-38.17 -57.04,-67.27 -12.47,-29.11 -18.71,-63.57 -18.71,-103.37zm383.17 2.68c0,-44.56 8.17,-81.83 24.51,-111.83 16.34,-30 38.76,-52.73 67.28,-68.17 28.51,-15.44 60.89,-23.17 97.13,-23.17 23.17,0 46.04,2.67 68.61,8.02 22.58,5.35 41.29,12.18 56.14,20.49 1.79,21.98 1.93,43.67 0.45,65.05 -1.49,21.39 -4.02,42.18 -7.58,62.38l-57.03 0 -18.72 -65.05c-2.38,-7.72 -4.46,-13.66 -6.24,-17.82 -1.78,-4.16 -4.16,-7.43 -7.13,-9.81 -3.56,-2.97 -8.02,-5.64 -13.37,-8.02 -5.35,-2.38 -11.29,-3.57 -17.82,-3.57 -16.63,0 -30.89,10.25 -42.77,30.74 -11.88,20.5 -17.82,55.4 -17.82,104.71 0,45.15 6.53,79.16 19.6,102.03 13.07,22.87 35.05,34.3 65.94,34.3 19.01,0 35.64,-3.41 49.9,-10.25 14.25,-6.83 25.24,-13.52 32.97,-20.05l24.95 19.6c-7.72,23.76 -24.21,43.37 -49.46,58.81 -25.24,15.45 -57.48,23.17 -96.68,23.17 -39.81,0 -72.48,-8.47 -98.02,-25.4 -25.55,-16.93 -44.4,-39.95 -56.58,-69.06 -12.18,-29.11 -18.27,-61.48 -18.27,-97.13zm359.11 182.68l0 -46.34 34.76 -6.24c10.7,-1.78 16.04,-8.02 16.04,-18.71l0 -424.17c0,-10.69 -5.05,-16.63 -15.15,-17.82l-41.88 -7.13 0 -45.45c23.17,-6.54 49.46,-11.14 78.86,-13.81 29.41,-2.67 55.7,-4.01 78.86,-4.01l16.04 16.04 0 496.35c0,8.91 4.75,15.14 14.26,18.71l22.28 6.24 0 46.34 -204.06 0zm242.38 0l0 -46.34 21.39 -6.24c4.75,-1.78 8.46,-4.01 11.14,-6.68 2.67,-2.67 4.01,-6.68 4.01,-12.03l0 -162.18c0,-30.3 -4.46,-51.68 -13.36,-64.16 -8.91,-12.48 -23.17,-18.72 -42.77,-18.72 -12.47,0 -25.4,2.53 -38.77,7.58 -13.36,5.05 -25.69,12.62 -36.98,22.72l0 -32.97c16.04,-22.58 35.5,-39.36 58.37,-50.35 22.87,-10.99 48.57,-16.48 77.08,-16.48 43.96,0 73.81,12.18 89.55,36.53 15.74,24.36 23.62,58.81 23.62,103.37l0 174.66c0,10.69 5.05,16.93 15.15,18.71l34.75 6.24 0 46.34 -203.17 0z"/>
   <g>
    <path class="fil1" d="M3649.02 2542.99l0 -264.11 35.04 0 0 264.11 -35.04 0zm92.52 0l0 -191.44 29.14 0 0 27.17c14.02,-20.84 34.31,-31.23 60.8,-31.23 11.56,0 22.13,2.09 31.79,6.21 9.65,4.12 16.91,9.59 21.7,16.29 4.8,6.7 8.18,14.69 10.08,23.92 1.16,6.02 1.78,16.54 1.78,31.53l0 117.55 -32.46 0 0 -116.31c0,-13.22 -1.23,-23.12 -3.75,-29.63 -2.52,-6.52 -7.01,-11.74 -13.4,-15.68 -6.39,-3.87 -13.96,-5.84 -22.56,-5.84 -13.77,0 -25.63,4.37 -35.66,13.15 -10.02,8.73 -15,25.39 -15,49.86l0 104.45 -32.46 0zm205.15 0l0 -191.44 29.14 0 0 27.17c14.02,-20.84 34.3,-31.23 60.8,-31.23 11.56,0 22.13,2.09 31.78,6.21 9.65,4.12 16.91,9.59 21.7,16.29 4.8,6.7 8.18,14.69 10.08,23.92 1.17,6.02 1.79,16.54 1.79,31.53l0 117.55 -32.46 0 0 -116.31c0,-13.22 -1.23,-23.12 -3.74,-29.63 -2.52,-6.52 -7.01,-11.74 -13.4,-15.68 -6.39,-3.87 -13.96,-5.84 -22.56,-5.84 -13.77,0 -25.63,4.37 -35.66,13.15 -10.02,8.73 -15,25.39 -15,49.86l0 104.45 -32.46 0zm192.98 -95.72c0,-35.35 9.84,-61.54 29.57,-78.57 16.41,-14.14 36.52,-21.21 60.19,-21.21 26.25,0 47.76,8.6 64.49,25.82 16.66,17.15 25.02,40.95 25.02,71.25 0,24.59 -3.69,43.9 -11.06,57.97 -7.38,14.08 -18.14,25.02 -32.28,32.83 -14.08,7.81 -29.51,11.68 -46.17,11.68 -26.8,0 -48.45,-8.55 -64.99,-25.7 -16.54,-17.15 -24.77,-41.87 -24.77,-74.08zm33.19 0.06c0,24.47 5.35,42.79 16.05,54.9 10.76,12.17 24.22,18.26 40.51,18.26 16.11,0 29.51,-6.09 40.26,-18.32 10.7,-12.24 16.05,-30.86 16.05,-55.88 0,-23.61 -5.41,-41.5 -16.17,-53.61 -10.76,-12.17 -24.16,-18.26 -40.14,-18.26 -16.29,0 -29.76,6.03 -40.51,18.14 -10.7,12.11 -16.05,30.37 -16.05,54.78zm236.44 95.66l-72.23 -191.44 34.73 0 40.94 114.65c4.43,12.36 8.55,25.21 12.3,38.54 2.89,-10.08 6.89,-22.19 12.11,-36.39l42.54 -116.81 33.32 0 -72.48 191.44 -31.23 0zm257.16 -23.98c-12.05,10.27 -23.67,17.46 -34.8,21.7 -11.13,4.24 -23.06,6.33 -35.84,6.33 -21.03,0 -37.2,-5.1 -48.51,-15.37 -11.31,-10.2 -16.96,-23.3 -16.96,-39.22 0,-9.34 2.15,-17.89 6.39,-25.64 4.31,-7.75 9.9,-13.89 16.78,-18.57 6.95,-4.67 14.69,-8.24 23.36,-10.63 6.39,-1.66 16.05,-3.26 28.9,-4.86 26.19,-3.08 45.55,-6.82 57.91,-11.13 0.12,-4.42 0.18,-7.25 0.18,-8.42 0,-13.16 -3.08,-22.44 -9.23,-27.85 -8.3,-7.32 -20.65,-10.95 -37.01,-10.95 -15.31,0 -26.62,2.7 -33.87,8.06 -7.32,5.35 -12.67,14.81 -16.17,28.46l-31.72 -4.42c2.89,-13.59 7.62,-24.59 14.26,-32.95 6.64,-8.36 16.23,-14.76 28.77,-19.31 12.48,-4.49 27.05,-6.76 43.53,-6.76 16.35,0 29.69,1.91 39.96,5.78 10.2,3.87 17.77,8.67 22.56,14.51 4.8,5.84 8.17,13.22 10.14,22.13 1.04,5.53 1.6,15.5 1.6,29.82l0 43.04c0,30.06 0.68,49.06 2.03,57.11 1.29,8.05 3.99,15.74 7.93,23.12l-33.93 0c-3.26,-6.82 -5.35,-14.82 -6.27,-23.98zm-2.58 -71.93c-11.81,4.8 -29.51,8.85 -53.12,12.17 -13.4,1.91 -22.87,4.06 -28.4,6.46 -5.53,2.39 -9.78,5.9 -12.79,10.45 -3.01,4.61 -4.55,9.72 -4.55,15.37 0,8.55 3.26,15.74 9.84,21.45 6.58,5.72 16.17,8.61 28.77,8.61 12.48,0 23.61,-2.7 33.38,-8.18 9.71,-5.41 16.91,-12.85 21.45,-22.26 3.51,-7.31 5.23,-18.07 5.23,-32.28l0.18 -11.8zm153.14 66.95l4.43 28.65c-9.1,1.9 -17.28,2.89 -24.41,2.89 -11.74,0 -20.84,-1.84 -27.36,-5.6 -6.46,-3.75 -11,-8.61 -13.65,-14.69 -2.65,-6.09 -3.93,-18.88 -3.93,-38.36l0 -110.29 -23.98 0 0 -25.08 23.98 0 0 -47.34 32.46 -19.49 0 66.83 32.46 0 0 25.08 -32.46 0 0 112.14c0,9.28 0.55,15.25 1.72,17.89 1.11,2.65 2.95,4.74 5.53,6.33 2.58,1.54 6.27,2.33 11.07,2.33 3.56,0 8.3,-0.43 14.14,-1.29zm162.61 -33.01l33.57 4.42c-5.23,19.49 -15,34.67 -29.26,45.43 -14.26,10.76 -32.46,16.17 -54.66,16.17 -27.91,0 -50.04,-8.61 -66.39,-25.82 -16.35,-17.15 -24.53,-41.31 -24.53,-72.35 0,-32.1 8.24,-57.06 24.78,-74.76 16.54,-17.77 37.99,-26.62 64.36,-26.62 25.52,0 46.35,8.67 62.52,26.07 16.17,17.4 24.28,41.86 24.28,73.4 0,1.91 -0.06,4.8 -0.18,8.6l-142.56 0c1.23,20.97 7.13,37.07 17.82,48.2 10.64,11.13 23.98,16.72 39.9,16.72 11.87,0 22.01,-3.14 30.37,-9.41 8.42,-6.27 15.06,-16.29 19.98,-30.06zm-106.23 -52.01l106.6 0c-1.41,-16.11 -5.53,-28.16 -12.24,-36.21 -10.26,-12.48 -23.66,-18.75 -40.08,-18.75 -14.88,0 -27.36,4.98 -37.5,14.94 -10.09,9.96 -15.68,23.3 -16.78,40.02zm524.9 113.98l0 -264.11 35.04 0 0 264.11 -35.04 0zm92.52 0l0 -191.44 29.14 0 0 27.17c14.02,-20.84 34.3,-31.23 60.8,-31.23 11.56,0 22.13,2.09 31.78,6.21 9.65,4.12 16.91,9.59 21.7,16.29 4.8,6.7 8.18,14.69 10.08,23.92 1.17,6.02 1.79,16.54 1.79,31.53l0 117.55 -32.46 0 0 -116.31c0,-13.22 -1.23,-23.12 -3.74,-29.63 -2.52,-6.52 -7.01,-11.74 -13.4,-15.68 -6.39,-3.87 -13.96,-5.84 -22.56,-5.84 -13.77,0 -25.63,4.37 -35.66,13.15 -10.02,8.73 -15,25.39 -15,49.86l0 104.45 -32.46 0zm275.6 -28.96l4.43 28.65c-9.1,1.9 -17.27,2.89 -24.41,2.89 -11.74,0 -20.84,-1.84 -27.36,-5.6 -6.46,-3.75 -11,-8.61 -13.65,-14.69 -2.65,-6.09 -3.94,-18.88 -3.94,-38.36l0 -110.29 -23.98 0 0 -25.08 23.98 0 0 -47.34 32.46 -19.49 0 66.83 32.46 0 0 25.08 -32.46 0 0 112.14c0,9.28 0.55,15.25 1.72,17.89 1.11,2.65 2.95,4.74 5.53,6.33 2.59,1.54 6.28,2.33 11.07,2.33 3.56,0 8.3,-0.43 14.14,-1.29zm162.61 -33.01l33.57 4.42c-5.22,19.49 -15,34.67 -29.26,45.43 -14.26,10.76 -32.46,16.17 -54.66,16.17 -27.91,0 -50.04,-8.61 -66.39,-25.82 -16.35,-17.15 -24.53,-41.31 -24.53,-72.35 0,-32.1 8.24,-57.06 24.78,-74.76 16.54,-17.77 37.99,-26.62 64.36,-26.62 25.52,0 46.35,8.67 62.52,26.07 16.17,17.4 24.28,41.86 24.28,73.4 0,1.91 -0.06,4.8 -0.18,8.6l-142.56 0c1.23,20.97 7.13,37.07 17.83,48.2 10.63,11.13 23.98,16.72 39.9,16.72 11.87,0 22.01,-3.14 30.37,-9.41 8.42,-6.27 15.06,-16.29 19.98,-30.06zm-106.23 -52.01l106.61 0c-1.41,-16.11 -5.53,-28.16 -12.24,-36.21 -10.26,-12.48 -23.67,-18.75 -40.08,-18.75 -14.88,0 -27.36,4.98 -37.5,14.94 -10.09,9.96 -15.68,23.3 -16.79,40.02zm174.84 129.84l31.36 4.43c1.29,9.72 4.98,16.78 11,21.27 8.05,5.96 19.06,8.97 33.01,8.97 15,0 26.62,-3.01 34.8,-8.97 8.18,-5.96 13.71,-14.39 16.6,-25.14 1.66,-6.58 2.46,-20.41 2.34,-41.5 -14.2,16.72 -31.85,25.09 -53,25.09 -26.31,0 -46.72,-9.47 -61.11,-28.46 -14.45,-18.94 -21.64,-41.69 -21.64,-68.18 0,-18.26 3.32,-35.1 9.9,-50.53 6.58,-15.43 16.17,-27.3 28.71,-35.72 12.54,-8.43 27.29,-12.6 44.27,-12.6 22.56,0 41.19,9.22 55.82,27.66l0 -23.6 29.88 0 0 165.31c0,29.82 -3.01,50.91 -9.1,63.32 -6.03,12.41 -15.68,22.25 -28.77,29.44 -13.16,7.19 -29.33,10.82 -48.51,10.82 -22.8,0 -41.19,-5.1 -55.2,-15.37 -14.08,-10.2 -20.84,-25.63 -20.35,-46.23zm26.56 -114.84c0,25.02 4.98,43.28 14.94,54.78 10.02,11.5 22.5,17.27 37.5,17.27 14.94,0 27.42,-5.72 37.56,-17.15 10.08,-11.43 15.12,-29.38 15.12,-53.85 0,-23.37 -5.23,-41.01 -15.62,-52.87 -10.39,-11.86 -22.93,-17.77 -37.56,-17.77 -14.44,0 -26.68,5.84 -36.82,17.53 -10.08,11.68 -15.12,29.02 -15.12,52.07zm184.18 98.98l0 -191.44 29.14 0 0 29.32c7.44,-13.58 14.32,-22.56 20.65,-26.87 6.33,-4.36 13.28,-6.51 20.84,-6.51 10.94,0 22.07,3.44 33.38,10.26l-11.56 29.94c-7.87,-4.42 -15.74,-6.64 -23.61,-6.64 -7.07,0 -13.4,2.16 -19,6.4 -5.59,4.24 -9.59,10.14 -11.99,17.7 -3.63,11.5 -5.41,24.1 -5.41,37.81l0 100.03 -32.46 0zm248.25 -23.98c-12.05,10.27 -23.67,17.46 -34.8,21.7 -11.13,4.24 -23.05,6.33 -35.84,6.33 -21.03,0 -37.2,-5.1 -48.51,-15.37 -11.31,-10.2 -16.96,-23.3 -16.96,-39.22 0,-9.34 2.15,-17.89 6.39,-25.64 4.31,-7.75 9.9,-13.89 16.79,-18.57 6.94,-4.67 14.69,-8.24 23.36,-10.63 6.4,-1.66 16.05,-3.26 28.9,-4.86 26.19,-3.08 45.56,-6.82 57.91,-11.13 0.12,-4.42 0.18,-7.25 0.18,-8.42 0,-13.16 -3.07,-22.44 -9.22,-27.85 -8.3,-7.32 -20.65,-10.95 -37.01,-10.95 -15.31,0 -26.62,2.7 -33.87,8.06 -7.31,5.35 -12.66,14.81 -16.17,28.46l-31.72 -4.42c2.89,-13.59 7.62,-24.59 14.26,-32.95 6.64,-8.36 16.23,-14.76 28.77,-19.31 12.48,-4.49 27.05,-6.76 43.53,-6.76 16.35,0 29.7,1.91 39.96,5.78 10.2,3.87 17.77,8.67 22.56,14.51 4.8,5.84 8.18,13.22 10.14,22.13 1.05,5.53 1.6,15.5 1.6,29.82l0 43.04c0,30.06 0.68,49.06 2.03,57.11 1.29,8.05 3.99,15.74 7.93,23.12l-33.94 0c-3.26,-6.82 -5.35,-14.82 -6.27,-23.98zm-2.58 -71.93c-11.8,4.8 -29.51,8.85 -53.12,12.17 -13.4,1.91 -22.87,4.06 -28.4,6.46 -5.53,2.39 -9.78,5.9 -12.79,10.45 -3.01,4.61 -4.55,9.72 -4.55,15.37 0,8.55 3.26,15.74 9.83,21.45 6.58,5.72 16.17,8.61 28.77,8.61 12.48,0 23.6,-2.7 33.38,-8.18 9.72,-5.41 16.91,-12.85 21.45,-22.26 3.51,-7.31 5.23,-18.07 5.23,-32.28l0.18 -11.8zm153.14 66.95l4.43 28.65c-9.1,1.9 -17.27,2.89 -24.41,2.89 -11.74,0 -20.84,-1.84 -27.36,-5.6 -6.46,-3.75 -11,-8.61 -13.65,-14.69 -2.65,-6.09 -3.94,-18.88 -3.94,-38.36l0 -110.29 -23.98 0 0 -25.08 23.98 0 0 -47.34 32.46 -19.49 0 66.83 32.46 0 0 25.08 -32.46 0 0 112.14c0,9.28 0.55,15.25 1.72,17.89 1.11,2.65 2.95,4.74 5.53,6.33 2.58,1.54 6.28,2.33 11.07,2.33 3.56,0 8.3,-0.43 14.14,-1.29zm162.61 -33.01l33.57 4.42c-5.22,19.49 -15,34.67 -29.26,45.43 -14.26,10.76 -32.46,16.17 -54.66,16.17 -27.91,0 -50.04,-8.61 -66.39,-25.82 -16.35,-17.15 -24.53,-41.31 -24.53,-72.35 0,-32.1 8.24,-57.06 24.78,-74.76 16.54,-17.77 37.99,-26.62 64.36,-26.62 25.52,0 46.35,8.67 62.52,26.07 16.17,17.4 24.28,41.86 24.28,73.4 0,1.91 -0.06,4.8 -0.18,8.6l-142.56 0c1.23,20.97 7.13,37.07 17.83,48.2 10.63,11.13 23.98,16.72 39.9,16.72 11.87,0 22.01,-3.14 30.37,-9.41 8.42,-6.27 15.06,-16.29 19.98,-30.06zm-106.23 -52.01l106.61 0c-1.42,-16.11 -5.53,-28.16 -12.24,-36.21 -10.26,-12.48 -23.67,-18.75 -40.08,-18.75 -14.88,0 -27.36,4.98 -37.5,14.94 -10.09,9.96 -15.68,23.3 -16.79,40.02zm524.9 113.98l0 -264.11 35.04 0 0 264.11 -35.04 0zm92.52 0l0 -191.44 29.14 0 0 27.17c14.02,-20.84 34.31,-31.23 60.8,-31.23 11.56,0 22.13,2.09 31.78,6.21 9.65,4.12 16.91,9.59 21.7,16.29 4.8,6.7 8.17,14.69 10.08,23.92 1.17,6.02 1.78,16.54 1.78,31.53l0 117.55 -32.46 0 0 -116.31c0,-13.22 -1.23,-23.12 -3.75,-29.63 -2.52,-6.52 -7.01,-11.74 -13.4,-15.68 -6.4,-3.87 -13.96,-5.84 -22.57,-5.84 -13.77,0 -25.63,4.37 -35.66,13.15 -10.02,8.73 -15,25.39 -15,49.86l0 104.45 -32.46 0zm192.24 -57.17l32.09 -5.17c1.78,12.85 6.82,22.69 15.06,29.57 8.23,6.82 19.79,10.27 34.55,10.27 14.94,0 26,-3.01 33.26,-9.1 7.19,-6.03 10.82,-13.15 10.82,-21.33 0,-7.31 -3.26,-13.09 -9.71,-17.28 -4.55,-2.89 -15.62,-6.51 -33.2,-11 -23.73,-5.96 -40.15,-11.13 -49.37,-15.49 -9.16,-4.43 -16.11,-10.45 -20.84,-18.2 -4.73,-7.68 -7.13,-16.23 -7.13,-25.57 0,-8.54 1.97,-16.41 5.84,-23.67 3.94,-7.26 9.22,-13.28 15.92,-18.07 5.04,-3.69 11.92,-6.82 20.59,-9.4 8.73,-2.58 18.02,-3.87 27.97,-3.87 15,0 28.16,2.15 39.47,6.51 11.37,4.31 19.74,10.21 25.14,17.58 5.35,7.44 9.1,17.34 11.13,29.76l-31.72 4.43c-1.41,-9.96 -5.59,-17.77 -12.48,-23.36 -6.89,-5.6 -16.6,-8.36 -29.2,-8.36 -14.82,0 -25.46,2.46 -31.78,7.38 -6.33,4.92 -9.53,10.7 -9.53,17.28 0,4.18 1.29,7.99 3.94,11.37 2.64,3.45 6.76,6.33 12.42,8.61 3.26,1.23 12.72,3.99 28.59,8.3 22.87,6.08 38.85,11.13 47.95,15 9.1,3.87 16.23,9.59 21.39,16.97 5.23,7.44 7.81,16.66 7.81,27.73 0,10.76 -3.13,20.9 -9.47,30.43 -6.33,9.53 -15.43,16.91 -27.3,22.13 -11.93,5.23 -25.39,7.81 -40.39,7.81 -24.84,0 -43.84,-5.16 -56.87,-15.43 -13.04,-10.33 -21.33,-25.57 -24.96,-45.8zm197.34 130.58l0 -264.84 29.51 0 0 25.14c6.94,-9.72 14.82,-17.03 23.6,-21.89 8.73,-4.86 19.37,-7.31 31.85,-7.31 16.35,0 30.74,4.18 43.22,12.6 12.48,8.36 21.89,20.22 28.28,35.47 6.33,15.31 9.53,32.03 9.53,50.29 0,19.49 -3.51,37.07 -10.51,52.75 -7.01,15.61 -17.21,27.61 -30.61,35.96 -13.34,8.3 -27.42,12.48 -42.18,12.48 -10.82,0 -20.53,-2.27 -29.08,-6.82 -8.61,-4.55 -15.62,-10.27 -21.15,-17.21l0 93.39 -32.46 0zm29.51 -167.96c0,24.53 4.98,42.66 14.87,54.41 9.96,11.74 22.01,17.64 36.15,17.64 14.39,0 26.68,-6.09 36.89,-18.26 10.26,-12.17 15.37,-30.98 15.37,-56.5 0,-24.35 -4.98,-42.54 -15,-54.65 -10.02,-12.11 -21.95,-18.14 -35.84,-18.14 -13.77,0 -25.94,6.46 -36.52,19.31 -10.64,12.91 -15.92,31.6 -15.92,56.19zm175.64 -132.67l0 -36.89 32.46 0 0 36.89 -32.46 0zm0 227.22l0 -191.44 32.46 0 0 191.44 -32.46 0zm81.58 0l0 -191.44 29.14 0 0 29.32c7.44,-13.58 14.32,-22.56 20.65,-26.87 6.33,-4.36 13.28,-6.51 20.84,-6.51 10.94,0 22.07,3.44 33.39,10.26l-11.56 29.94c-7.87,-4.42 -15.74,-6.64 -23.61,-6.64 -7.07,0 -13.4,2.16 -19,6.4 -5.59,4.24 -9.58,10.14 -11.99,17.7 -3.63,11.5 -5.41,24.1 -5.41,37.81l0 100.03 -32.46 0zm253.78 -61.97l33.57 4.42c-5.23,19.49 -15,34.67 -29.26,45.43 -14.26,10.76 -32.46,16.17 -54.66,16.17 -27.91,0 -50.04,-8.61 -66.39,-25.82 -16.35,-17.15 -24.53,-41.31 -24.53,-72.35 0,-32.1 8.24,-57.06 24.78,-74.76 16.54,-17.77 37.99,-26.62 64.36,-26.62 25.52,0 46.35,8.67 62.52,26.07 16.17,17.4 24.28,41.86 24.28,73.4 0,1.91 -0.06,4.8 -0.18,8.6l-142.57 0c1.23,20.97 7.13,37.07 17.83,48.2 10.63,11.13 23.98,16.72 39.9,16.72 11.87,0 22.01,-3.14 30.37,-9.41 8.42,-6.27 15.06,-16.29 19.98,-30.06zm-106.23 -52.01l106.61 0c-1.41,-16.11 -5.53,-28.16 -12.24,-36.21 -10.26,-12.48 -23.67,-18.75 -40.08,-18.75 -14.88,0 -27.36,4.98 -37.5,14.94 -10.09,9.96 -15.68,23.3 -16.79,40.02z"/>
    <path class="fil3" d="M5151.89 2413.39c0,-12.6 4.49,-23.36 13.46,-32.28 8.91,-8.91 19.68,-13.34 32.22,-13.34 12.6,0 23.42,4.42 32.34,13.34 8.97,8.92 13.46,19.68 13.46,32.28 0,12.67 -4.49,23.48 -13.46,32.4 -8.91,8.98 -19.73,13.46 -32.34,13.46 -12.54,0 -23.3,-4.48 -32.22,-13.46 -8.97,-8.91 -13.46,-19.73 -13.46,-32.4zm1790.16 0c0,-12.6 4.49,-23.36 13.47,-32.28 8.91,-8.91 19.67,-13.34 32.22,-13.34 12.6,0 23.42,4.42 32.34,13.34 8.97,8.92 13.46,19.68 13.46,32.28 0,12.67 -4.49,23.48 -13.46,32.4 -8.91,8.98 -19.74,13.46 -32.34,13.46 -12.54,0 -23.31,-4.48 -32.22,-13.46 -8.98,-8.91 -13.47,-19.73 -13.47,-32.4z"/>
   </g>
  </g>
 </g>
</svg>
